<?xml version="1.0" encoding="UTF-8" standalone="no"?><!DOCTYPE svg PUBLIC "-//W3C//DTD SVG 1.1//EN" "http://www.w3.org/Graphics/SVG/1.1/DTD/svg11.dtd"><svg width="100%" height="100%" viewBox="0 0 38 36" version="1.1" xmlns="http://www.w3.org/2000/svg" xmlns:xlink="http://www.w3.org/1999/xlink" xml:space="preserve" xmlns:serif="http://www.serif.com/" style="fill-rule:evenodd;clip-rule:evenodd;stroke-linejoin:round;stroke-miterlimit:2;"><path d="M3.418,21.779l0.472,-2.137c-0,0 3.7,16.243 3.7,16.243l2.956,-17.192c-0,-0 3.095,13.007 3.095,13.007l2.255,-9.225c-0,-0 3.159,13.274 3.159,13.274l2.67,-15.757c-0,0 2.544,13.664 2.544,13.664l2.968,-12.244c-0,0 2.774,13.684 2.774,13.684l3.602,-15.109c0,0 0.394,2.177 0.394,2.177l3.444,-0.623l-3.366,-18.624l-3.798,15.928c0,0 -2.746,-13.544 -2.746,-13.544l-2.823,11.646c-0,-0 -3.156,-16.947 -3.156,-16.947l-3.085,18.206c0,-0 -2.536,-10.659 -2.536,-10.659l-2.255,9.225c0,0 -3.693,-15.522 -3.693,-15.522l-2.883,16.771c-0,-0 -3.273,-14.366 -3.273,-14.366l-3.837,17.369l3.418,0.755Z"/></svg>