<?xml version="1.0" encoding="UTF-8" standalone="no"?><!DOCTYPE svg PUBLIC "-//W3C//DTD SVG 1.1//EN" "http://www.w3.org/Graphics/SVG/1.1/DTD/svg11.dtd"><svg width="100%" height="100%" viewBox="0 0 38 32" version="1.1" xmlns="http://www.w3.org/2000/svg" xmlns:xlink="http://www.w3.org/1999/xlink" xml:space="preserve" xmlns:serif="http://www.serif.com/" style="fill-rule:evenodd;clip-rule:evenodd;stroke-linejoin:round;stroke-miterlimit:2;"><path d="M3.451,16.169c0.801,-4.75 2.182,-8.391 3.88,-10.62c0.874,-1.148 1.782,-1.902 2.764,-2.031c1.175,-0.154 2.251,0.687 3.318,2.266c1.456,2.154 2.7,5.581 3.6,10.414c1.238,6.65 3.173,10.919 5.249,13.189c1.763,1.928 3.697,2.601 5.559,2.35c1.745,-0.235 3.526,-1.347 5.083,-3.399c1.948,-2.567 3.628,-6.717 4.562,-12.164l-3.449,-0.592c-0.815,4.752 -2.202,8.401 -3.901,10.641c-0.875,1.153 -1.781,1.914 -2.762,2.046c-1.169,0.157 -2.236,-0.682 -3.298,-2.259c-1.454,-2.158 -2.698,-5.596 -3.602,-10.452c-1.233,-6.624 -3.171,-10.883 -5.252,-13.153c-1.764,-1.924 -3.699,-2.601 -5.562,-2.357c-1.75,0.229 -3.535,1.334 -5.093,3.38c-1.95,2.56 -3.628,6.706 -4.547,12.159l3.451,0.582Z"/></svg>