<?xml version="1.0" encoding="UTF-8" standalone="no"?><!DOCTYPE svg PUBLIC "-//W3C//DTD SVG 1.1//EN" "http://www.w3.org/Graphics/SVG/1.1/DTD/svg11.dtd"><svg width="100%" height="100%" viewBox="0 0 182 114" version="1.1" xmlns="http://www.w3.org/2000/svg" xmlns:xlink="http://www.w3.org/1999/xlink" xml:space="preserve" xmlns:serif="http://www.serif.com/" style="fill-rule:evenodd;clip-rule:evenodd;stroke-linejoin:round;stroke-miterlimit:2;"><rect x="0" y="0" width="181.417" height="113.386" style="fill:#fff;"/><path d="M31.181,0l-15.388,0l0,67.019c0,2.123 1.724,3.847 3.847,3.847l7.694,0c2.123,0 3.847,-1.724 3.847,-3.847l0,-67.019Z"/><path d="M61.874,0l-15.388,0l0,67.019c0,2.123 1.724,3.847 3.847,3.847l7.694,0c2.123,0 3.847,-1.724 3.847,-3.847l0,-67.019Z"/><path d="M107.431,0l-15.388,0l0,67.019c0,2.123 1.724,3.847 3.847,3.847l7.694,0c2.123,0 3.847,-1.724 3.847,-3.847l0,-67.019Z"/><path d="M137.278,0l-15.388,0l-0,67.019c-0,2.123 1.724,3.847 3.847,3.847l7.694,0c2.123,0 3.847,-1.724 3.847,-3.847l-0,-67.019Z"/><path d="M167.154,0l-15.388,0l0,67.019c0,2.123 1.724,3.847 3.847,3.847l7.694,0c2.123,0 3.847,-1.724 3.847,-3.847l0,-67.019Z"/></svg>